<svg xmlns="http://www.w3.org/2000/svg" version="1.1" xmlns:xlink="http://www.w3.org/1999/xlink" xmlns:svgjs="http://svgjs.com/svgjs" width="1080" height="720" preserveAspectRatio="none" viewBox="0 0 1080 720"><g mask="url(&quot;#SvgjsMask1049&quot;)" fill="none"><rect width="1080" height="720" x="0" y="0" fill="url(#SvgjsLinearGradient1050)"></rect><path d="M80.47 301.08a46.92 46.92 0 1 0-69.8-62.72z" fill="#e73635"></path><path d="M229.31 633.97a55.21 55.21 0 1 0-84.2-71.43z" stroke="#e73635"></path><path d="M430.47 146.59L488.34 146.59L488.34 204.46L430.47 204.46z" stroke="#037b0b"></path><path d="M959.76 70.09L1031.76 70.09L1031.76 142.09L959.76 142.09z" fill="#037b0b"></path><path d="M956.02 132.18a62.79 62.79 0 1 0 38.2 119.62z" stroke="#037b0b"></path><path d="M498.99 38.24L511.56 38.24L511.56 50.81L498.99 50.81z" stroke="#037b0b"></path><path d="M6.81 533.28L67.09 533.28L67.09 593.56L6.81 593.56z" fill="#d3b714"></path><path d="M796.38 628.2a18.66 18.66 0 1 0 4.95-36.99z" fill="#037b0b"></path><path d="M613.26 273.34a52.35 52.35 0 1 0-104.68-1.99z" fill="#d3b714"></path><path d="M896.2 203.55 a36.05 36.05 0 1 0 72.1 0 a36.05 36.05 0 1 0 -72.1 0z" fill="#d3b714"></path><path d="M766.39 563.99L771.63 563.99L771.63 569.23L766.39 569.23z" fill="#d3b714"></path><path d="M771.03 192.92L810.28 192.92L810.28 238.81L771.03 238.81z" stroke="#037b0b"></path><path d="M603.89 671.22L653.95 671.22L653.95 709.92L603.89 709.92z" fill="#037b0b"></path><path d="M424.56 91.02 a35.78 35.78 0 1 0 71.56 0 a35.78 35.78 0 1 0 -71.56 0z" fill="#037b0b"></path><path d="M135.13 677.26a64.54 64.54 0 1 0 128.84-7.88z" fill="#e73635"></path><path d="M146.1 252.34a36.09 36.09 0 1 0 36.38 62.34z" fill="#037b0b"></path><path d="M157.27 322.15a54.31 54.31 0 1 0-6.92-108.4z" stroke="#e73635"></path><path d="M259.76 641.44L288.5 641.44L288.5 670.18L259.76 670.18z" fill="#d3b714"></path><path d="M60.68 556.82 a52.33 52.33 0 1 0 104.66 0 a52.33 52.33 0 1 0 -104.66 0z" fill="#037b0b"></path></g><defs><mask id="SvgjsMask1049"><rect width="1080" height="720" fill="#ffffff"></rect></mask><linearGradient x1="50%" y1="100%" x2="50%" y2="0%" gradientUnits="userSpaceOnUse" id="SvgjsLinearGradient1050"><stop stop-color="#0e2a47" offset="0"></stop><stop stop-color="#00459e" offset="1"></stop></linearGradient></defs></svg>